<svg width="24" height="25" viewBox="0 0 24 25" fill="none" xmlns="http://www.w3.org/2000/svg">
<g id="Apple" clipPath="url(#clip0_4700_7434)">
<path id="path4" d="M21.792 19.2038C21.429 20.0423 20.9994 20.8141 20.5016 21.5237C19.8231 22.4911 19.2676 23.1607 18.8395 23.5325C18.1758 24.1429 17.4647 24.4555 16.7032 24.4733C16.1566 24.4733 15.4973 24.3177 14.73 24.0022C13.9601 23.6881 13.2525 23.5325 12.6056 23.5325C11.9271 23.5325 11.1994 23.6881 10.4211 24.0022C9.64153 24.3177 9.01355 24.4821 8.53342 24.4984C7.80322 24.5295 7.07539 24.2081 6.3489 23.5325C5.88521 23.1281 5.30523 22.4348 4.61043 21.4526C3.86498 20.4037 3.25211 19.1875 2.77198 17.8009C2.25777 16.3031 2 14.8528 2 13.4487C2 11.8403 2.34754 10.4531 3.04367 9.2906C3.59076 8.35685 4.31859 7.62028 5.22953 7.07955C6.14046 6.53883 7.12473 6.26328 8.18469 6.24565C8.76467 6.24565 9.52524 6.42505 10.4704 6.77764C11.4129 7.1314 12.0181 7.3108 12.2834 7.3108C12.4817 7.3108 13.154 7.10103 14.2937 6.68282C15.3714 6.29498 16.281 6.1344 17.0262 6.19765C19.0454 6.36061 20.5624 7.15659 21.5712 8.59062C19.7654 9.68481 18.8721 11.2174 18.8898 13.1834C18.9061 14.7147 19.4617 15.9891 20.5535 17.0009C21.0483 17.4705 21.6009 17.8335 22.2156 18.0912C22.0823 18.4779 21.9416 18.8482 21.792 19.2038ZM17.161 0.980625C17.161 2.1809 16.7225 3.30159 15.8484 4.33889C14.7937 5.57204 13.5179 6.28461 12.1343 6.17217C12.1167 6.02818 12.1065 5.87663 12.1065 5.71737C12.1065 4.56511 12.6081 3.33196 13.4989 2.3237C13.9436 1.81319 14.5092 1.38872 15.1951 1.0501C15.8796 0.716543 16.5269 0.532077 17.1358 0.500488C17.1536 0.660946 17.161 0.821414 17.161 0.98061V0.980625Z" fill="#14142B"/>
</g>
<defs>
<clipPath id="clip0_4700_7434">
<rect width="24" height="24" fill="white" transform="translate(0 0.5)"/>
</clipPath>
</defs>
</svg>
