<svg width="25" height="25" viewBox="0 0 25 25" fill="none" xmlns="http://www.w3.org/2000/svg">
<path fill-rule="evenodd" clip-rule="evenodd" d="M16.3344 7.95704C15.302 6.97232 13.9241 6.43587 12.4984 6.45792C9.88968 6.45792 7.67406 8.21792 6.88409 10.5879L6.8814 10.5858V10.5879C6.46253 11.8298 6.46252 13.1746 6.88138 14.4165H6.88776C7.68141 16.7828 9.89336 18.5428 12.5021 18.5428C13.8486 18.5428 15.0045 18.1984 15.9005 17.5902V17.5873C16.955 16.8892 17.6752 15.7906 17.8993 14.5487H12.498V10.698H21.93C22.0476 11.3667 22.1027 12.0501 22.1027 12.7299C22.1027 15.7713 21.0158 18.3426 19.1247 20.0842L19.1269 20.086C17.4698 21.6145 15.1954 22.5 12.4984 22.5C8.71757 22.5 5.26004 20.3689 3.5625 16.9922V16.9902L3.55981 16.9922C2.14152 14.1667 2.14152 10.8378 3.55981 8.01221H3.56257L3.5625 8.01215C5.26004 4.63178 8.71757 2.50067 12.4984 2.50067C14.9823 2.47128 17.3816 3.40456 19.1894 5.10209L16.3344 7.95704Z" fill="black"/>
</svg>
