<svg width="54" height="41" viewBox="0 0 54 41" fill="none" xmlns="http://www.w3.org/2000/svg">
<path d="M47.905 5.24573L53.8186 19.2345C54.0936 19.8787 53.9561 20.569 53.4518 21.0751L46.0713 28.4376C45.6587 28.8518 45.1086 28.9898 44.5585 28.8978C44.0084 28.7598 43.5958 28.4376 43.3666 27.8855L36.0777 9.29511C35.5276 7.91464 34.6108 7.13237 33.5106 7.13237C32.4104 7.13237 31.4935 7.91464 30.9434 9.29511L27.0469 19.2345C26.7718 19.8787 26.2217 20.2929 25.5341 20.2929H15.3113C14.7612 20.2929 14.2569 20.0168 13.9361 19.5566C13.6152 19.0965 13.5693 18.4983 13.7985 17.9921L19.2996 5.24573C20.6748 2.02463 23.6546 0.0459515 27.1844 0.0459515H40.0201C43.5041 -6.42575e-05 46.5297 1.97861 47.905 5.24573Z" fill="#007099"/>
<path d="M6.05093 35.7543L0.13732 21.7655C-0.137732 21.1213 -0.000206305 20.431 0.504055 19.9249L7.88461 12.5624C8.29719 12.1482 8.84729 12.0102 9.3974 12.1022C9.9475 12.2403 10.3601 12.5624 10.5893 13.1145L17.8323 31.6589C18.3824 33.0394 19.2993 33.8216 20.3995 33.8216C21.4997 33.8216 22.4165 33.0394 22.9666 31.6589L26.8632 21.7655C27.1382 21.1213 27.6883 20.7071 28.376 20.7071H38.5987C39.1488 20.7071 39.6531 20.9832 39.974 21.4434C40.2949 21.9036 40.3407 22.5018 40.1115 23.0079L34.6105 35.7543C33.2352 38.9754 30.2555 40.9541 26.7257 40.9541H13.8899C10.4518 41.0001 7.42619 39.0214 6.05093 35.7543Z" fill="#00A7E5"/>
</svg>
