<svg width="24" height="24" viewBox="0 0 24 24" fill="none" xmlns="http://www.w3.org/2000/svg">
<path fill-rule="evenodd" clip-rule="evenodd" d="M12 23C18.0751 23 23 18.0751 23 12C23 5.92487 18.0751 1 12 1C5.92487 1 1 5.92487 1 12C1 18.0751 5.92487 23 12 23ZM9.52838 11.4194C9.23548 11.1265 8.76061 11.1265 8.46772 11.4194C8.17482 11.7123 8.17482 12.1871 8.46772 12.48L10.589 14.6014L11.1194 15.1317L11.6497 14.6014L15.8923 10.3587C16.1852 10.0658 16.1852 9.59095 15.8923 9.29806C15.5994 9.00516 15.1246 9.00516 14.8317 9.29806L11.1194 13.0104L9.52838 11.4194Z" fill="#00CC67"/>
</svg>
