<svg width="25" height="25" viewBox="0 0 25 25" fill="none" xmlns="http://www.w3.org/2000/svg">
<g id="ic24-google">
<path id="Icon" fillRule="evenodd" clipRule="evenodd" d="M16.3359 7.9568C15.3034 6.97208 13.9255 6.43563 12.4999 6.45767C9.89141 6.45767 7.67598 8.21732 6.88579 10.5869V10.5877C6.46692 11.8296 6.46692 13.1744 6.88578 14.4163H6.88923C7.68288 16.7825 9.89482 18.5425 12.5036 18.5425C13.8504 18.5425 15.0066 18.198 15.9027 17.5895V17.5871C16.9572 16.889 17.6774 15.7904 17.9015 14.5484H12.5002V10.6978H21.9322C22.0498 11.3665 22.1049 12.0499 22.1049 12.7297C22.1049 15.7712 21.0179 18.3427 19.1265 20.0843L19.1284 20.0857C17.4713 21.6143 15.1969 22.4998 12.4999 22.4998C8.71904 22.4998 5.2615 20.3687 3.56396 16.992V16.9915C2.14593 14.1661 2.146 10.8374 3.56416 8.01206L3.56396 8.01191C5.2615 4.63154 8.71904 2.50043 12.4999 2.50043C14.9838 2.47104 17.3831 3.40431 19.1908 5.10185L16.3359 7.9568Z" fill="black"/>
</g>
</svg>
