<svg width="25" height="24" viewBox="0 0 25 24" fill="none" xmlns="http://www.w3.org/2000/svg">
<g clipPath="url(#clip0_1_3946)">
<path fillRule="evenodd" clipRule="evenodd" d="M17.3436 6.54794C16.1045 5.36623 14.451 4.72247 12.7402 4.74893C9.60961 4.74893 6.95079 6.86098 6.00277 9.70498V9.70505C5.50011 11.1954 5.50011 12.8092 6.00277 14.2996H6.00717C6.95959 17.1392 9.61401 19.2512 12.7446 19.2512C14.3607 19.2512 15.748 18.8379 16.8233 18.1078V18.1048C18.0888 17.2671 18.953 15.9487 19.222 14.4583H12.7402V9.83734H24.059C24.2001 10.6398 24.2663 11.46 24.2663 12.2757C24.2663 15.9255 22.9619 19.0113 20.6923 21.1013L20.6947 21.1032C18.7061 22.9374 15.9767 24.0001 12.7402 24.0001C8.20302 24.0001 4.05384 21.4427 2.01672 17.3905V17.3905C0.314734 13.9997 0.314738 10.0049 2.01674 6.61411H2.01676L2.01672 6.61408C4.05384 2.55749 8.20302 7.62441e-05 12.7402 7.62441e-05C15.7209 -0.0351984 18.6002 1.08477 20.7696 3.12188L17.3436 6.54794Z" fill="#FCFCFC"/>
</g>
<defs>
<clipPath id="clip0_1_3946">
<rect width="24" height="24" fill="white" transform="translate(0.5)"/>
</clipPath>
</defs>
</svg>
