<svg width="25" height="25" viewBox="0 0 25 25" fill="none" xmlns="http://www.w3.org/2000/svg">
<path fill-rule="evenodd" clip-rule="evenodd" d="M12.25 2.5C17.7728 2.5 22.25 6.97715 22.25 12.5C22.25 18.0228 17.7728 22.5 12.25 22.5C6.72715 22.5 2.25 18.0228 2.25 12.5C2.25 6.97715 6.72715 2.5 12.25 2.5ZM12.25 4.5C7.83172 4.5 4.25 8.08172 4.25 12.5C4.25 16.9183 7.83172 20.5 12.25 20.5C16.6683 20.5 20.25 16.9183 20.25 12.5C20.25 8.08172 16.6683 4.5 12.25 4.5ZM12.25 6.5C12.8023 6.5 13.25 6.94772 13.25 7.5V11.5H17.25C17.8023 11.5 18.25 11.9477 18.25 12.5C18.25 13.0523 17.8023 13.5 17.25 13.5H13.25V17.5C13.25 18.0523 12.8023 18.5 12.25 18.5C11.6977 18.5 11.25 18.0523 11.25 17.5V13.5H7.25C6.69772 13.5 6.25 13.0523 6.25 12.5C6.25 11.9477 6.69772 11.5 7.25 11.5H11.25V7.5C11.25 6.94772 11.6977 6.5 12.25 6.5Z" fill="#D9DBE9"/>
</svg>
