<svg width="20" height="21" viewBox="0 0 20 21" fill="none" xmlns="http://www.w3.org/2000/svg">
<path id="Star" d="M9.30788 1.15797C9.56452 0.5432 10.4355 0.5432 10.6921 1.15797L12.8937 6.43186C12.9963 6.67755 13.2214 6.85045 13.4852 6.88616L19.2876 7.67148C19.9378 7.75948 20.1695 8.58097 19.6612 8.99579L15.1809 12.6518C14.9594 12.8326 14.86 13.1235 14.9244 13.402L16.3568 19.5919C16.5119 20.262 15.7583 20.77 15.1953 20.3748L10.4309 17.0309C10.1723 16.8494 9.82771 16.8494 9.56914 17.0309L4.8047 20.3749C4.24167 20.77 3.48807 20.2621 3.64315 19.5919L5.07545 13.402C5.1399 13.1235 5.04042 12.8326 4.81895 12.6518L0.338802 8.99578C-0.169523 8.58096 0.0622221 7.75948 0.712396 7.67149L6.51479 6.88616C6.77862 6.85045 7.00375 6.67755 7.10631 6.43186L9.30788 1.15797Z" fill="url(#paint0_linear_119_4321)"/>
<defs>
<linearGradient id="paint0_linear_119_4321" x1="-0.5" y1="11" x2="21" y2="11" gradientUnits="userSpaceOnUse">
<stop offset="0.488592" stop-color="#E2A21F"/>
<stop offset="0.489076" stop-color="#D9DBE9"/>
</linearGradient>
</defs>
</svg>
