<svg width="25" height="24" viewBox="0 0 25 24" fill="none" xmlns="http://www.w3.org/2000/svg">
<g id="uil:image-upload">
<path id="Vector" d="M19.4995 12.9999C19.2343 12.9999 18.9799 13.1053 18.7924 13.2928C18.6049 13.4803 18.4995 13.7347 18.4995 13.9999V14.3799L17.0195 12.8999C16.4969 12.3814 15.7906 12.0905 15.0545 12.0905C14.3184 12.0905 13.6121 12.3814 13.0895 12.8999L12.3895 13.5999L9.90951 11.1199C9.37963 10.6155 8.67608 10.3342 7.94451 10.3342C7.21295 10.3342 6.50939 10.6155 5.97951 11.1199L4.49951 12.5999V6.9999C4.49951 6.73468 4.60487 6.48033 4.79241 6.29279C4.97994 6.10525 5.2343 5.9999 5.49951 5.9999H12.4995C12.7647 5.9999 13.0191 5.89454 13.2066 5.707C13.3942 5.51947 13.4995 5.26511 13.4995 4.9999C13.4995 4.73468 13.3942 4.48033 13.2066 4.29279C13.0191 4.10525 12.7647 3.9999 12.4995 3.9999H5.49951C4.70386 3.9999 3.9408 4.31597 3.37819 4.87858C2.81558 5.44118 2.49951 6.20425 2.49951 6.9999V18.9999C2.49951 19.7955 2.81558 20.5586 3.37819 21.1212C3.9408 21.6838 4.70386 21.9999 5.49951 21.9999H17.4995C18.2952 21.9999 19.0582 21.6838 19.6208 21.1212C20.1834 20.5586 20.4995 19.7955 20.4995 18.9999V13.9999C20.4995 13.7347 20.3942 13.4803 20.2066 13.2928C20.0191 13.1053 19.7647 12.9999 19.4995 12.9999ZM5.49951 19.9999C5.2343 19.9999 4.97994 19.8945 4.79241 19.707C4.60487 19.5195 4.49951 19.2651 4.49951 18.9999V15.4299L7.39951 12.5299C7.54642 12.3899 7.74158 12.3118 7.94451 12.3118C8.14745 12.3118 8.3426 12.3899 8.48951 12.5299L11.6595 15.6999L15.9595 19.9999H5.49951ZM18.4995 18.9999C18.4981 19.1913 18.4349 19.3772 18.3195 19.5299L13.8095 14.9999L14.5095 14.2999C14.5812 14.2267 14.6668 14.1686 14.7612 14.1289C14.8557 14.0892 14.9571 14.0688 15.0595 14.0688C15.162 14.0688 15.2634 14.0892 15.3578 14.1289C15.4522 14.1686 15.5378 14.2267 15.6095 14.2999L18.4995 17.2099V18.9999ZM23.2095 4.2899L20.2095 1.2899C20.1144 1.19886 20.0023 1.12749 19.8795 1.0799C19.636 0.979878 19.363 0.979878 19.1195 1.0799C18.9968 1.12749 18.8846 1.19886 18.7895 1.2899L15.7895 4.2899C15.6012 4.4782 15.4954 4.73359 15.4954 4.9999C15.4954 5.2662 15.6012 5.52159 15.7895 5.7099C15.9778 5.8982 16.2332 6.00399 16.4995 6.00399C16.7658 6.00399 17.0212 5.8982 17.2095 5.7099L18.4995 4.4099V9.9999C18.4995 10.2651 18.6049 10.5195 18.7924 10.707C18.9799 10.8945 19.2343 10.9999 19.4995 10.9999C19.7647 10.9999 20.0191 10.8945 20.2066 10.707C20.3942 10.5195 20.4995 10.2651 20.4995 9.9999V4.4099L21.7895 5.7099C21.8825 5.80362 21.9931 5.87802 22.1149 5.92879C22.2368 5.97956 22.3675 6.00569 22.4995 6.00569C22.6315 6.00569 22.7622 5.97956 22.8841 5.92879C23.0059 5.87802 23.1165 5.80362 23.2095 5.7099C23.3032 5.61693 23.3776 5.50633 23.4284 5.38447C23.4792 5.26261 23.5053 5.13191 23.5053 4.9999C23.5053 4.86788 23.4792 4.73718 23.4284 4.61532C23.3776 4.49346 23.3032 4.38286 23.2095 4.2899Z" fill="#A0A3BD"/>
</g>
</svg>
