<svg width="24" height="25" viewBox="0 0 24 25" fill="none" xmlns="http://www.w3.org/2000/svg">
<g id="ic24-info">
<path id="Icon" fillRule="evenodd" clipRule="evenodd" d="M12 2.5C17.5228 2.5 22 6.97715 22 12.5C22 18.0228 17.5228 22.5 12 22.5C6.47715 22.5 2 18.0228 2 12.5C2 6.97715 6.47715 2.5 12 2.5ZM12.001 4.49805C7.5827 4.49805 4.00098 8.07977 4.00098 12.498C4.00098 16.9163 7.5827 20.498 12.001 20.498C16.4193 20.498 20.001 16.9163 20.001 12.498C20.001 8.07977 16.4193 4.49805 12.001 4.49805ZM12 10.498C12.5523 10.498 13 10.9458 13 11.498V17.498C13 18.0503 12.5523 18.498 12 18.498C11.4477 18.498 11 18.0503 11 17.498V11.498C11 10.9458 11.4477 10.498 12 10.498ZM12 6.49902C12.5523 6.49902 13 6.94674 13 7.49902C13 8.05131 12.5523 8.49902 12 8.49902C11.4477 8.49902 11 8.05131 11 7.49902C11 6.94674 11.4477 6.49902 12 6.49902Z" fill="black"/>
</g>
</svg>
