<svg width="25" height="26" viewBox="0 0 25 26" fill="none" xmlns="http://www.w3.org/2000/svg">
<g id="Link - Instagram &#226;&#134;&#146; SVG" clipPath="url(#clip0_21_321)">
<g id="Group">
<path id="Vector" d="M12.5 2.59214C15.8376 2.59214 16.2329 2.60484 17.551 2.66498C18.7698 2.7206 19.4316 2.92424 19.8721 3.09538C20.4556 3.32213 20.872 3.59305 21.3094 4.03044C21.7468 4.46783 22.0177 4.88428 22.2444 5.4677C22.4156 5.90822 22.6192 6.57008 22.6749 7.78877C22.735 9.1069 22.7477 9.50221 22.7477 12.8399C22.7477 16.1775 22.735 16.5728 22.6749 17.8909C22.6192 19.1097 22.4156 19.7715 22.2444 20.212C22.0177 20.7955 21.7468 21.2119 21.3094 21.6493C20.872 22.0867 20.4556 22.3576 19.8721 22.5843C19.4316 22.7555 18.7698 22.9591 17.551 23.0148C16.2331 23.0749 15.8378 23.0876 12.5 23.0876C9.16212 23.0876 8.7668 23.0749 7.44893 23.0148C6.23019 22.9591 5.56832 22.7555 5.12786 22.5843C4.54439 22.3576 4.12794 22.0867 3.69055 21.6493C3.25316 21.2119 2.98224 20.7955 2.75553 20.212C2.58435 19.7715 2.38071 19.1097 2.32509 17.891C2.26495 16.5728 2.25225 16.1775 2.25225 12.8399C2.25225 9.50221 2.26495 9.1069 2.32509 7.78882C2.38071 6.57008 2.58435 5.90822 2.75553 5.4677C2.98224 4.88428 3.25316 4.46783 3.69055 4.03044C4.12794 3.59305 4.54439 3.32213 5.12786 3.09538C5.56832 2.92424 6.23019 2.7206 7.44888 2.66498C8.767 2.60484 9.16232 2.59214 12.5 2.59214ZM12.5 0.339844C9.10515 0.339844 8.67952 0.354233 7.34627 0.415066C6.01574 0.475799 5.10712 0.687076 4.31198 0.996102C3.48999 1.31555 2.7929 1.74296 2.09798 2.43788C1.40307 3.13279 0.975655 3.82988 0.656209 4.65187C0.347183 5.44701 0.135906 6.35563 0.0751725 7.68616C0.0143398 9.01937 0 9.44505 0 12.8399C0 16.2347 0.0143398 16.6604 0.0751725 17.9936C0.135906 19.3241 0.347183 20.2327 0.656209 21.0279C0.975655 21.8498 1.40307 22.5469 2.09798 23.2419C2.7929 23.9368 3.48999 24.3642 4.31198 24.6836C5.10712 24.9927 6.01574 25.2039 7.34627 25.2647C8.67952 25.3255 9.10515 25.3398 12.5 25.3398C15.8948 25.3398 16.3205 25.3255 17.6537 25.2647C18.9842 25.2039 19.8928 24.9927 20.688 24.6836C21.51 24.3642 22.2071 23.9368 22.902 23.2419C23.5969 22.5469 24.0243 21.8499 24.3437 21.0279C24.6528 20.2327 24.864 19.3241 24.9248 17.9936C24.9856 16.6604 25 16.2347 25 12.8399C25 9.44505 24.9856 9.01937 24.9248 7.68616C24.864 6.35563 24.6528 5.44701 24.3437 4.65187C24.0243 3.82988 23.5969 3.13279 22.902 2.43788C22.2071 1.74296 21.51 1.31555 20.688 0.996102C19.8928 0.687076 18.9842 0.475799 17.6537 0.415066C16.3205 0.354233 15.8948 0.339844 12.5 0.339844ZM12.5 6.42093C8.95491 6.42093 6.08104 9.2948 6.08104 12.8399C6.08104 16.3849 8.95491 19.2588 12.5 19.2588C16.045 19.2588 18.9189 16.3849 18.9189 12.8399C18.9189 9.2948 16.045 6.42093 12.5 6.42093ZM12.5 17.0066C10.1988 17.0066 8.33328 15.141 8.33328 12.8399C8.33328 10.5387 10.1988 8.67318 12.5 8.67318C14.8011 8.67318 16.6667 10.5387 16.6667 12.8399C16.6667 15.141 14.8011 17.0066 12.5 17.0066ZM20.6725 6.16733C20.6725 6.99576 20.001 7.66735 19.1725 7.66735C18.3441 7.66735 17.6725 6.99576 17.6725 6.16733C17.6725 5.33889 18.3441 4.66735 19.1725 4.66735C20.001 4.66735 20.6725 5.33889 20.6725 6.16733Z" fill="#262338"/>
</g>
</g>
<defs>
<clipPath id="clip0_21_321">
<rect width="25" height="25" fill="white" transform="translate(0 0.339844)"/>
</clipPath>
</defs>
</svg>
