<svg width="199" height="41" viewBox="0 0 199 41" fill="none" xmlns="http://www.w3.org/2000/svg">
<g clipPath="url(#clip0_4562_2566)">
<path d="M47.905 5.24573L53.8186 19.2345C54.0936 19.8787 53.9561 20.569 53.4518 21.0751L46.0713 28.4376C45.6587 28.8518 45.1086 28.9898 44.5585 28.8978C44.0084 28.7598 43.5958 28.4376 43.3666 27.8855L36.0777 9.29511C35.5276 7.91464 34.6108 7.13237 33.5106 7.13237C32.4104 7.13237 31.4935 7.91464 30.9434 9.29511L27.0469 19.2345C26.7718 19.8787 26.2217 20.2929 25.5341 20.2929H15.3113C14.7612 20.2929 14.2569 20.0168 13.9361 19.5566C13.6152 19.0965 13.5693 18.4983 13.7985 17.9921L19.2996 5.24573C20.6748 2.02463 23.6546 0.0459515 27.1844 0.0459515H40.0201C43.5041 -6.42575e-05 46.5297 1.97861 47.905 5.24573Z" fill="#007099"/>
<path d="M6.05093 35.7543L0.13732 21.7655C-0.137732 21.1213 -0.000206305 20.431 0.504055 19.9249L7.88461 12.5624C8.29719 12.1482 8.84729 12.0102 9.3974 12.1022C9.9475 12.2403 10.3601 12.5624 10.5893 13.1145L17.8323 31.6589C18.3824 33.0394 19.2993 33.8216 20.3995 33.8216C21.4997 33.8216 22.4165 33.0394 22.9666 31.6589L26.8632 21.7655C27.1382 21.1213 27.6883 20.7071 28.376 20.7071H38.5987C39.1488 20.7071 39.6531 20.9832 39.974 21.4434C40.2949 21.9036 40.3407 22.5018 40.1115 23.0079L34.6105 35.7543C33.2352 38.9754 30.2555 40.9541 26.7257 40.9541H13.8899C10.4518 41.0001 7.42619 39.0214 6.05093 35.7543Z" fill="#00A7E5"/>
<path d="M149.674 11.2581L143.485 21.9798H141.606L135.509 11.3962L134.775 28.56H131.291L132.346 5.5982H135.83L142.614 17.2862L149.445 5.5982H152.975L154.029 28.56H150.407L149.674 11.2581ZM116.622 12.5466H119.418V7.30079H122.902V12.5466H127.486V15.3996H122.902V23.2222C122.902 24.2346 123.086 24.9708 123.452 25.431C123.819 25.8911 124.369 26.1212 125.148 26.1212C126.019 26.1212 126.845 25.7991 127.578 25.1089L129.045 27.3176C127.853 28.468 126.34 29.0202 124.598 29.0202C122.902 29.0202 121.619 28.514 120.702 27.5477C119.831 26.5814 119.372 25.1549 119.372 23.2682V15.3996H116.576V12.5466H116.622ZM110.479 6.19641H114.238V9.78563H110.479V6.19641ZM110.617 12.5466H114.101V28.56H110.617V12.5466ZM186.531 12.5466H189.327V7.30079H192.811V12.5466H197.395V15.3996H192.811V23.2222C192.811 24.2346 192.995 24.9708 193.361 25.431C193.728 25.8911 194.278 26.1212 195.057 26.1212C195.928 26.1212 196.754 25.7991 197.487 25.1089L198.954 27.3176C197.762 28.468 196.249 29.0202 194.507 29.0202C192.811 29.0202 191.528 28.514 190.611 27.5477C189.74 26.5814 189.281 25.1549 189.281 23.2682V15.3996H186.485V12.5466H186.531ZM173.787 12.5466H176.996L177.179 15.1695C177.729 14.2492 178.463 13.5589 179.334 13.0527C180.205 12.5466 181.213 12.3165 182.268 12.3165C182.863 12.3165 183.459 12.4085 184.055 12.5926L183.414 15.7677C182.955 15.6296 182.451 15.5376 181.901 15.5376C180.571 15.5376 179.471 15.9517 178.6 16.826C177.729 17.7003 177.271 18.8507 177.271 20.2772V28.6061H173.787V12.5466ZM160.584 23.7284C160.584 24.5567 160.859 25.2469 161.409 25.7071C161.96 26.1672 162.693 26.3973 163.656 26.3973C164.481 26.3973 165.214 26.2593 165.856 25.9371C166.498 25.615 167.048 25.2009 167.415 24.6487C167.781 24.0965 168.011 23.4983 168.011 22.8541V21.0595C166.865 20.8754 165.856 20.7834 164.939 20.7834C163.564 20.7834 162.464 21.0135 161.73 21.5196C160.951 22.0258 160.584 22.7621 160.584 23.7284ZM157.192 23.9125C157.192 22.2099 157.834 20.8294 159.117 19.8631C160.401 18.8967 162.189 18.3906 164.573 18.3906C165.627 18.3906 166.773 18.4826 168.011 18.6667V18.0685C168.011 15.9517 166.727 14.8934 164.114 14.8934C162.326 14.8934 160.768 15.3996 159.484 16.3659L157.971 14.0191C159.759 12.6846 161.914 12.0404 164.389 12.0404C166.59 12.0404 168.332 12.5466 169.523 13.6049C170.715 14.6633 171.357 16.0898 171.357 17.9764V28.56H168.24L168.102 26.4893C167.598 27.2716 166.865 27.9158 165.902 28.376C164.985 28.8361 163.931 29.0662 162.739 29.0662C161.089 29.0662 159.713 28.6061 158.705 27.6857C157.696 26.7194 157.192 25.477 157.192 23.9125ZM103.924 5.5982H107.408V28.56H103.924V5.5982ZM97.9641 20.3232C97.9641 18.7587 97.5516 17.4703 96.7722 16.5039C95.9929 15.5376 94.8927 15.0774 93.5633 15.0774C92.3256 15.0774 91.2712 15.4916 90.4461 16.3199C89.6209 17.1481 89.2083 18.2525 89.2083 19.587V24.8788C90.3085 25.615 91.5463 25.9832 92.8298 25.9832C94.3885 25.9832 95.6262 25.477 96.543 24.4186C97.5057 23.4983 97.9641 22.0718 97.9641 20.3232ZM85.7702 12.5466H88.9791L89.1166 14.4792C90.171 12.8687 91.913 12.0404 94.2051 12.0404C95.6262 12.0404 96.9098 12.3625 98.01 13.0527C99.1102 13.743 99.9353 14.6633 100.531 15.9057C101.127 17.1021 101.448 18.5286 101.448 20.1392C101.448 21.8418 101.081 23.4063 100.394 24.7407C99.7061 26.0752 98.6976 27.1336 97.4599 27.9158C96.2221 28.6981 94.801 29.0662 93.1966 29.0662C91.8213 29.0662 90.4461 28.6981 89.1625 28.0079V35.4624H85.6785V12.5466H85.7702ZM79.5815 22.3019C79.5815 21.2896 79.2148 20.4613 78.5271 19.8631C77.8395 19.2649 76.6935 18.7587 75.089 18.3446L73.8971 18.0224C71.7425 17.5163 70.1381 16.734 69.1295 15.6756C68.0752 14.6633 67.5709 13.3288 67.5709 11.6723C67.5709 10.3378 67.8918 9.18743 68.5336 8.17508C69.1754 7.16274 70.0922 6.38047 71.2383 5.82828C72.3843 5.27609 73.7596 5 75.364 5C76.9227 5 78.3438 5.27609 79.5815 5.82828C80.8192 6.38047 81.8736 7.16274 82.6529 8.17508L80.4067 10.5219C79.0772 9.00337 77.3352 8.26712 75.1807 8.26712C73.9888 8.26712 73.0261 8.54321 72.2926 9.0954C71.605 9.64759 71.2383 10.3838 71.2383 11.3502C71.2383 12.1785 71.5592 12.8687 72.2009 13.4209C72.8427 13.927 73.9429 14.3872 75.5016 14.8013L76.6935 15.1235C81.0943 16.2739 83.2947 18.5746 83.2947 22.0718C83.2947 23.4523 82.9738 24.6947 82.2862 25.7531C81.5986 26.8114 80.6359 27.6397 79.3981 28.2379C78.1604 28.8361 76.6935 29.1122 75.0431 29.1122C73.347 29.1122 71.7884 28.7901 70.2756 28.0999C68.8086 27.4557 67.5251 26.4893 66.4707 25.2469L68.7628 22.8541C70.5965 24.8788 72.7052 25.8911 75.0431 25.8911C76.4643 25.8911 77.5645 25.569 78.3896 24.9248C79.1689 24.2806 79.5815 23.4063 79.5815 22.3019Z" fill="#007099"/>
</g>
<defs>
<clipPath id="clip0_4562_2566">
<rect width="199" height="41" fill="white"/>
</clipPath>
</defs>
</svg>
