<svg width="25" height="25" viewBox="0 0 25 25" fill="none" xmlns="http://www.w3.org/2000/svg">
<g style="mix-blend-mode:multiply">
<path fillRule="evenodd" clipRule="evenodd" d="M12.6787 17.2995C11.2207 16.0706 10.2962 14.242 10.2962 12.2C10.2962 10.158 11.2207 8.32937 12.6787 7.10046C11.4947 6.10247 9.9588 5.5 8.28052 5.5C4.53564 5.5 1.49982 8.49969 1.49982 12.2C1.49982 15.9003 4.53564 18.9 8.28052 18.9C9.9588 18.9 11.4947 18.2975 12.6787 17.2995Z" fill="#F9A000"/>
</g>
<path opacity="0.7" fillRule="evenodd" clipRule="evenodd" d="M12.6794 17.2994C14.1374 16.0705 15.0619 14.2419 15.0619 12.1999C15.0619 10.1579 14.1374 8.32925 12.6794 7.10034C11.2214 8.32925 10.2969 10.1579 10.2969 12.1999C10.2969 14.2419 11.2214 16.0705 12.6794 17.2994Z" fill="#6D6DBB"/>
<g style="mix-blend-mode:multiply" opacity="0.2">
<path fillRule="evenodd" clipRule="evenodd" d="M12.6787 17.2995C14.1367 16.0706 15.0612 14.242 15.0612 12.2C15.0612 10.158 14.1367 8.32937 12.6787 7.10046C13.8627 6.10247 15.3986 5.5 17.0769 5.5C20.8218 5.5 23.8576 8.49969 23.8576 12.2C23.8576 15.9003 20.8218 18.9 17.0769 18.9C15.3986 18.9 13.8627 18.2975 12.6787 17.2995Z" fill="#6D6DBB"/>
</g>
</svg>
