<svg width="25" height="25" viewBox="0 0 25 25" fill="none" xmlns="http://www.w3.org/2000/svg">
<path fill-rule="evenodd" clip-rule="evenodd" d="M12.5 2.5C6.97715 2.5 2.5 6.97715 2.5 12.5C2.5 18.0228 6.97715 22.5 12.5 22.5C18.0228 22.5 22.5 18.0228 22.5 12.5C22.5 6.97715 18.0228 2.5 12.5 2.5ZM12.5 4.5C16.9183 4.5 20.5 8.08172 20.5 12.5C20.5 16.9183 16.9183 20.5 12.5 20.5C8.08172 20.5 4.5 16.9183 4.5 12.5C4.5 8.08172 8.08172 4.5 12.5 4.5ZM7.5 11.5C6.94771 11.5 6.5 11.9477 6.5 12.5C6.5 13.0523 6.94771 13.5 7.5 13.5H17.5C18.0523 13.5 18.5 13.0523 18.5 12.5C18.5 11.9477 18.0523 11.5 17.5 11.5H7.5Z" fill="#14142B"/>
</svg>
