<svg width="23" height="20" viewBox="0 0 23 20" fill="none" xmlns="http://www.w3.org/2000/svg">
<path id="Vector" d="M21.5 0H1.5C1.23478 0 0.98043 0.105357 0.792893 0.292893C0.605357 0.48043 0.5 0.734784 0.5 1V9C0.5 9.26522 0.605357 9.51957 0.792893 9.70711C0.98043 9.89464 1.23478 10 1.5 10H4.5V19C4.5 19.2652 4.60536 19.5196 4.79289 19.7071C4.98043 19.8946 5.23478 20 5.5 20H17.5C17.7652 20 18.0196 19.8946 18.2071 19.7071C18.3946 19.5196 18.5 19.2652 18.5 19V10H21.5C21.7652 10 22.0196 9.89464 22.2071 9.70711C22.3946 9.51957 22.5 9.26522 22.5 9V1C22.5 0.734784 22.3946 0.48043 22.2071 0.292893C22.0196 0.105357 21.7652 0 21.5 0ZM6.5 18V16C7.03043 16 7.53914 16.2107 7.91421 16.5858C8.28929 16.9609 8.5 17.4696 8.5 18H6.5ZM16.5 18H14.5C14.5 17.4696 14.7107 16.9609 15.0858 16.5858C15.4609 16.2107 15.9696 16 16.5 16V18ZM16.5 14C15.4391 14 14.4217 14.4214 13.6716 15.1716C12.9214 15.9217 12.5 16.9391 12.5 18H10.5C10.5 16.9391 10.0786 15.9217 9.32843 15.1716C8.57828 14.4214 7.56087 14 6.5 14V6H16.5V14ZM20.5 8H18.5V5C18.5 4.73478 18.3946 4.48043 18.2071 4.29289C18.0196 4.10536 17.7652 4 17.5 4H5.5C5.23478 4 4.98043 4.10536 4.79289 4.29289C4.60536 4.48043 4.5 4.73478 4.5 5V8H2.5V2H20.5V8ZM11.5 13C12.0933 13 12.6734 12.8241 13.1667 12.4944C13.6601 12.1648 14.0446 11.6962 14.2716 11.1481C14.4987 10.5999 14.5581 9.99667 14.4424 9.41473C14.3266 8.83279 14.0409 8.29824 13.6213 7.87868C13.2018 7.45912 12.6672 7.1734 12.0853 7.05764C11.5033 6.94189 10.9001 7.0013 10.3519 7.22836C9.80377 7.45542 9.33524 7.83994 9.00559 8.33329C8.67595 8.82664 8.5 9.40666 8.5 10C8.5 10.7956 8.81607 11.5587 9.37868 12.1213C9.94129 12.6839 10.7044 13 11.5 13ZM11.5 9C11.6978 9 11.8911 9.05865 12.0556 9.16853C12.22 9.27841 12.3482 9.43459 12.4239 9.61732C12.4996 9.80004 12.5194 10.0011 12.4808 10.1951C12.4422 10.3891 12.347 10.5673 12.2071 10.7071C12.0673 10.847 11.8891 10.9422 11.6951 10.9808C11.5011 11.0194 11.3 10.9996 11.1173 10.9239C10.9346 10.8482 10.7784 10.72 10.6685 10.5556C10.5586 10.3911 10.5 10.1978 10.5 10C10.5 9.73478 10.6054 9.48043 10.7929 9.29289C10.9804 9.10536 11.2348 9 11.5 9Z" fill="#363D8B"/>
</svg>
