<svg width="24" height="24" viewBox="0 0 24 24" fill="none" xmlns="http://www.w3.org/2000/svg">
<g id="Paperclip">
<path id="Vector" d="M4.57554 10.9394L4.57557 10.9394L4.57098 10.9349C4.14439 10.5191 3.80462 10.0226 3.57138 9.47445C3.33814 8.92626 3.21607 8.33721 3.21225 7.74148C3.20843 7.14574 3.32295 6.55518 3.54914 6.00405C3.77534 5.45291 4.10873 4.95218 4.52995 4.53089C4.95118 4.1096 5.45187 3.77615 6.00297 3.54987C6.55407 3.3236 7.14462 3.209 7.74035 3.21273C8.33609 3.21647 8.92515 3.33845 9.47338 3.57162C10.0216 3.80478 10.5181 4.14448 10.934 4.57102L10.934 4.57105L10.9385 4.57555L18.0105 11.6455C18.0105 11.6455 18.0105 11.6455 18.0105 11.6455C18.2427 11.8777 18.4269 12.1534 18.5526 12.4567C18.6783 12.7601 18.743 13.0853 18.7431 13.4137C18.7431 13.742 18.6785 14.0672 18.5528 14.3706C18.4272 14.674 18.243 14.9497 18.0109 15.1819C17.7787 15.4142 17.5031 15.5984 17.1997 15.7241C16.8963 15.8498 16.5711 15.9145 16.2428 15.9146C15.9144 15.9146 15.5892 15.85 15.2858 15.7243C14.9824 15.5987 14.7068 15.4146 14.4746 15.1824C14.4745 15.1824 14.4745 15.1824 14.4745 15.1824L7.40457 8.11044L7.3971 8.10297L7.38931 8.09582C7.33969 8.0502 7.29979 7.99503 7.27203 7.93361C7.24427 7.87218 7.22922 7.80578 7.22778 7.73839C7.22633 7.671 7.23853 7.60402 7.26363 7.54146C7.28874 7.47891 7.32623 7.42208 7.37386 7.37438C7.42149 7.32669 7.47827 7.28911 7.54079 7.26392C7.6033 7.23873 7.67027 7.22644 7.73766 7.22778C7.80505 7.22913 7.87148 7.24409 7.93294 7.27177C7.9944 7.29944 8.04963 7.33925 8.09531 7.38882L8.10223 7.39632L8.10944 7.40353L15.1814 14.4745L15.1814 14.4746L15.1876 14.4806C15.4705 14.7538 15.8494 14.905 16.2427 14.9016C16.636 14.8982 17.0122 14.7404 17.2903 14.4623C17.5685 14.1842 17.7262 13.808 17.7296 13.4147C17.733 13.0214 17.5818 12.6425 17.3086 12.3596L17.3087 12.3595L17.3025 12.3534L10.2325 5.28242L10.2325 5.28239C9.57609 4.62597 8.68579 4.25719 7.75747 4.25719C6.82914 4.25719 5.93884 4.62597 5.28241 5.28239C4.62599 5.93882 4.25721 6.82912 4.25721 7.75745C4.25721 8.68577 4.62599 9.57608 5.28241 10.2325L13.7673 18.7174C13.7673 18.7174 13.7674 18.7175 13.7674 18.7175C14.2017 19.1521 14.7428 19.4648 15.3363 19.624C15.9298 19.7832 16.5547 19.7834 17.1484 19.6244C17.742 19.4655 18.2832 19.1531 18.7178 18.7186C19.1521 18.2844 19.4645 17.7436 19.6236 17.1504C19.6586 17.0233 19.7423 16.9151 19.8566 16.8494C19.9713 16.7836 20.1073 16.7658 20.235 16.7999C20.3627 16.8341 20.4717 16.9175 20.5381 17.0318C20.6043 17.1458 20.6228 17.2814 20.5896 17.4089C20.3852 18.1716 19.9837 18.8671 19.4254 19.4255C18.8669 19.9842 18.171 20.3861 17.4079 20.5906C16.6448 20.7951 15.8412 20.7951 15.0781 20.5906C14.315 20.386 13.6191 19.9842 13.0606 19.4254L13.0605 19.4254L4.57554 10.9394Z" fill="black" stroke="#4E4B66"/>
</g>
</svg>
