<svg width="25" height="25" viewBox="0 0 25 25" fill="none" xmlns="http://www.w3.org/2000/svg">
<g id="PayPal">
<path id="Union" d="M21.5061 6.9745C21.8209 7.08274 22.1136 7.21078 22.3835 7.35836C22.701 5.25891 22.3808 3.82946 21.2862 2.53506C20.0792 1.10987 17.9011 0.5 15.1138 0.5H7.02191C6.45261 0.5 5.96693 0.929211 5.87897 1.51352L2.50863 23.6664C2.44218 24.1046 2.76814 24.5 3.19439 24.5H8.18998L9.4127 16.4633C9.51807 15.9023 9.98886 15.4942 10.5449 15.4942H12.919C17.5816 15.4942 21.2325 13.5306 22.2995 7.85036C22.3314 7.68224 22.3595 7.51847 22.3835 7.35836C22.1136 7.21078 21.8209 7.08274 21.5061 6.9745Z" fill="#14142B"/>
</g>
</svg>
