<svg width="24" height="24" viewBox="0 0 24 24" fill="none" xmlns="http://www.w3.org/2000/svg">
<path d="M20 13V9H18V13H20ZM20 15.5V13H18V15.5H20ZM15.5 20C17.9853 20 20 17.9853 20 15.5H18C18 16.8807 16.8807 18 15.5 18V20ZM11 15.5C11 17.9853 13.0147 20 15.5 20V18C14.1193 18 13 16.8807 13 15.5H11ZM8.5 20C10.9853 20 13 17.9853 13 15.5H11C11 16.8807 9.88071 18 8.5 18V20ZM4 15.5C4 17.9853 6.01472 20 8.5 20V18C7.11929 18 6 16.8807 6 15.5H4ZM4 13V15.5H6V13H4ZM4 9V13H6V9H4ZM12 1C7.58172 1 4 4.58172 4 9H6C6 5.68629 8.68629 3 12 3V1ZM20 9C20 4.58172 16.4183 1 12 1V3C15.3137 3 18 5.68629 18 9H20Z" fill="#A0A3BD"/>
<circle cx="12" cy="14" r="1" stroke="#A0A3BD" strokeWidth="2"/>
<path d="M19 7V7C20.5621 6.4793 22.2144 7.50046 22.4472 9.13049L22.7554 11.2879C22.8845 12.1915 22.1833 13 21.2705 13H19V7Z" stroke="#A0A3BD" strokeWidth="2"/>
<path d="M5 7V7C3.43791 6.4793 1.78565 7.50046 1.55279 9.13049L1.24459 11.2879C1.1155 12.1915 1.81669 13 2.72951 13H5V7Z" stroke="#A0A3BD" strokeWidth="2"/>
<path d="M10 9V9.5" stroke="#A0A3BD" strokeWidth="2" strokeLinecap="round" strokeLinejoin="round"/>
<path d="M14 9V9.5" stroke="#A0A3BD" strokeWidth="2" strokeLinecap="round" strokeLinejoin="round"/>
<path d="M10 19C10 19 10 21.5 12 21.5C14 21.5 14 19 14 19" stroke="#A0A3BD" strokeWidth="2" strokeLinecap="round" strokeLinejoin="round"/>
</svg>
