<svg width="24" height="24" viewBox="0 0 24 24" fill="none" xmlns="http://www.w3.org/2000/svg">
<g id="Pin (filled)">
<path id="Subtract" fillRule="evenodd" clipRule="evenodd" d="M12.8411 20.3385C14.7011 18.7899 19 14.702 19 10C19 6.13401 15.866 3 12 3C8.13401 3 5 6.13401 5 10C5 14.702 9.29892 18.7899 11.1589 20.3385C11.6515 20.7486 12.3485 20.7486 12.8411 20.3385ZM12.0005 12.9998C13.6573 12.9998 15.0005 11.6566 15.0005 9.99976C15.0005 8.3429 13.6573 6.99976 12.0005 6.99976C10.3436 6.99976 9.00049 8.3429 9.00049 9.99976C9.00049 11.6566 10.3436 12.9998 12.0005 12.9998Z" fill="#00A7E5"/>
</g>
</svg>
