<svg width="57" height="57" viewBox="0 0 57 57" fill="none" xmlns="http://www.w3.org/2000/svg">
<path d="M24.586 34.5914C24.586 31.7814 23.7163 29.3728 21.9767 27.3656C20.2372 25.2247 18.0293 23.8196 15.353 23.1506C15.6207 21.411 16.2897 19.6046 17.3602 17.7312C18.5645 15.7241 19.8357 14.1183 21.1738 12.914L17.1595 9.50183C6.05317 16.8614 0.5 25.2247 0.5 34.5914C0.5 38.0705 1.6374 41.0144 3.91219 43.423C6.32079 45.6978 9.19773 46.8352 12.543 46.8352C15.8883 46.8352 18.6983 45.6309 20.9731 43.2223C23.3817 40.8137 24.586 37.9367 24.586 34.5914ZM56.5 34.5914C56.5 31.7814 55.6302 29.3728 53.8907 27.3656C52.1511 25.2247 49.9433 23.8196 47.267 23.1506C47.6685 21.2772 48.4044 19.4039 49.4749 17.5305C50.6792 15.6572 51.9504 14.1183 53.2885 12.914L49.0735 9.50183C37.8333 17.1291 32.2133 25.4923 32.2133 34.5914C32.2133 37.9367 33.4176 40.8137 35.8262 43.2223C38.2348 45.6309 41.1117 46.8352 44.457 46.8352C47.6685 46.8352 50.4785 45.6309 52.8871 43.2223C55.2957 40.8137 56.5 37.9367 56.5 34.5914Z" fill="#007099"/>
</svg>
