<svg width="20" height="21" viewBox="0 0 20 21" fill="none" xmlns="http://www.w3.org/2000/svg">
<path fill-rule="evenodd" clip-rule="evenodd" d="M15 0.466797C15.5523 0.466797 16 0.914512 16 1.4668V2.4668H17C18.6569 2.4668 20 3.80994 20 5.4668V17.4668C20 19.1237 18.6569 20.4668 17 20.4668H3C1.34315 20.4668 0 19.1237 0 17.4668V5.4668C0 3.80994 1.34315 2.4668 3 2.4668H4V1.4668C4 0.914512 4.44772 0.466797 5 0.466797C5.55228 0.466797 6 0.914512 6 1.4668V2.4668H14V1.4668C14 0.914512 14.4477 0.466797 15 0.466797ZM2 10.4668V17.4668C2 18.0191 2.44772 18.4668 3 18.4668H17C17.5523 18.4668 18 18.0191 18 17.4668V10.4668H2ZM2 8.4668H18V5.4668C18 4.91451 17.5523 4.4668 17 4.4668H16V5.4668C16 6.01908 15.5523 6.4668 15 6.4668C14.4477 6.4668 14 6.01908 14 5.4668V4.4668H6V5.4668C6 6.01908 5.55228 6.4668 5 6.4668C4.44772 6.4668 4 6.01908 4 5.4668V4.4668H3C2.44772 4.4668 2 4.91451 2 5.4668V8.4668Z" fill="#00ABBC"/>
</svg>
