<svg width="18" height="19" viewBox="0 0 18 19" fill="none" xmlns="http://www.w3.org/2000/svg">
<path fill-rule="evenodd" clip-rule="evenodd" d="M1 0.466797C1.26522 0.466797 1.51957 0.572159 1.70711 0.759704C1.89464 0.94725 2 1.20162 2 1.46685V2.46689H4V1.46685C4 1.20162 4.10536 0.94725 4.29289 0.759704C4.48043 0.572159 4.73478 0.466797 5 0.466797C5.26522 0.466797 5.51957 0.572159 5.70711 0.759704C5.89464 0.94725 6 1.20162 6 1.46685V2.46689H8V1.46685C8 1.20162 8.10536 0.94725 8.29289 0.759704C8.48043 0.572159 8.73478 0.466797 9 0.466797C9.26522 0.466797 9.51957 0.572159 9.70711 0.759704C9.89464 0.94725 10 1.20162 10 1.46685V2.46689H12V1.46685C12 1.20162 12.1054 0.94725 12.2929 0.759704C12.4804 0.572159 12.7348 0.466797 13 0.466797C13.2652 0.466797 13.5196 0.572159 13.7071 0.759704C13.8946 0.94725 14 1.20162 14 1.46685V2.46689H16V1.46685C16 1.20162 16.1054 0.94725 16.2929 0.759704C16.4804 0.572159 16.7348 0.466797 17 0.466797C17.2652 0.466797 17.5196 0.572159 17.7071 0.759704C17.8946 0.94725 18 1.20162 18 1.46685V15.4675C18 16.2632 17.6839 17.0263 17.1213 17.589C16.5587 18.1516 15.7956 18.4677 15 18.4677H3C2.20435 18.4677 1.44129 18.1516 0.87868 17.589C0.316071 17.0263 0 16.2632 0 15.4675V1.46685C0 1.20162 0.105357 0.94725 0.292893 0.759704C0.48043 0.572159 0.734784 0.466797 1 0.466797ZM16 4.46699H2V15.4675C2 15.7328 2.10536 15.9871 2.29289 16.1747C2.48043 16.3622 2.73478 16.4676 3 16.4676H15C15.2652 16.4676 15.5196 16.3622 15.7071 16.1747C15.8946 15.9871 16 15.7328 16 15.4675V4.46699ZM10 7.46714C10 7.73237 9.89464 7.98673 9.70711 8.17428C9.51957 8.36182 9.26522 8.46719 9 8.46719C8.73478 8.46719 8.48043 8.36182 8.29289 8.17428C8.10536 7.98673 8 7.73237 8 7.46714C8 7.20191 8.10536 6.94754 8.29289 6.76C8.48043 6.57245 8.73478 6.46709 9 6.46709C9.26522 6.46709 9.51957 6.57245 9.70711 6.76C9.89464 6.94754 10 7.20191 10 7.46714ZM13 8.46719C13.2652 8.46719 13.5196 8.36182 13.7071 8.17428C13.8946 7.98673 14 7.73237 14 7.46714C14 7.20191 13.8946 6.94754 13.7071 6.76C13.5196 6.57245 13.2652 6.46709 13 6.46709C12.7348 6.46709 12.4804 6.57245 12.2929 6.76C12.1054 6.94754 12 7.20191 12 7.46714C12 7.73237 12.1054 7.98673 12.2929 8.17428C12.4804 8.36182 12.7348 8.46719 13 8.46719ZM6 10.4673C6 10.7325 5.89464 10.9869 5.70711 11.1744C5.51957 11.362 5.26522 11.4673 5 11.4673C4.73478 11.4673 4.48043 11.362 4.29289 11.1744C4.10536 10.9869 4 10.7325 4 10.4673C4 10.2021 4.10536 9.94769 4.29289 9.76014C4.48043 9.5726 4.73478 9.46724 5 9.46724C5.26522 9.46724 5.51957 9.5726 5.70711 9.76014C5.89464 9.94769 6 10.2021 6 10.4673ZM9 11.4673C9.26522 11.4673 9.51957 11.362 9.70711 11.1744C9.89464 10.9869 10 10.7325 10 10.4673C10 10.2021 9.89464 9.94769 9.70711 9.76014C9.51957 9.5726 9.26522 9.46724 9 9.46724C8.73478 9.46724 8.48043 9.5726 8.29289 9.76014C8.10536 9.94769 8 10.2021 8 10.4673C8 10.7325 8.10536 10.9869 8.29289 11.1744C8.48043 11.362 8.73478 11.4673 9 11.4673ZM14 10.4673C14 10.7325 13.8946 10.9869 13.7071 11.1744C13.5196 11.362 13.2652 11.4673 13 11.4673C12.7348 11.4673 12.4804 11.362 12.2929 11.1744C12.1054 10.9869 12 10.7325 12 10.4673C12 10.2021 12.1054 9.94769 12.2929 9.76014C12.4804 9.5726 12.7348 9.46724 13 9.46724C13.2652 9.46724 13.5196 9.5726 13.7071 9.76014C13.8946 9.94769 14 10.2021 14 10.4673ZM5 14.4675C5.26522 14.4675 5.51957 14.3621 5.70711 14.1746C5.89464 13.987 6 13.7327 6 13.4674C6 13.2022 5.89464 12.9478 5.70711 12.7603C5.51957 12.5727 5.26522 12.4674 5 12.4674C4.73478 12.4674 4.48043 12.5727 4.29289 12.7603C4.10536 12.9478 4 13.2022 4 13.4674C4 13.7327 4.10536 13.987 4.29289 14.1746C4.48043 14.3621 4.73478 14.4675 5 14.4675ZM10 13.4674C10 13.7327 9.89464 13.987 9.70711 14.1746C9.51957 14.3621 9.26522 14.4675 9 14.4675C8.73478 14.4675 8.48043 14.3621 8.29289 14.1746C8.10536 13.987 8 13.7327 8 13.4674C8 13.2022 8.10536 12.9478 8.29289 12.7603C8.48043 12.5727 8.73478 12.4674 9 12.4674C9.26522 12.4674 9.51957 12.5727 9.70711 12.7603C9.89464 12.9478 10 13.2022 10 13.4674ZM13 14.4675C13.2652 14.4675 13.5196 14.3621 13.7071 14.1746C13.8946 13.987 14 13.7327 14 13.4674C14 13.2022 13.8946 12.9478 13.7071 12.7603C13.5196 12.5727 13.2652 12.4674 13 12.4674C12.7348 12.4674 12.4804 12.5727 12.2929 12.7603C12.1054 12.9478 12 13.2022 12 13.4674C12 13.7327 12.1054 13.987 12.2929 14.1746C12.4804 14.3621 12.7348 14.4675 13 14.4675Z" fill="#00ABBC"/>
</svg>
