<svg width="25" height="25" viewBox="0 0 25 25" fill="none" xmlns="http://www.w3.org/2000/svg">
<g id="ic24-share">
<path id="Icon" fillRule="evenodd" clipRule="evenodd" d="M18.5 2.5C20.7091 2.5 22.5 4.29086 22.5 6.5C22.5 8.70914 20.7091 10.5 18.5 10.5C17.3302 10.5 16.2777 9.99784 15.5462 9.19732L10.5 12.0803V12.9197L15.5462 15.8027C16.2777 15.0022 17.3302 14.5 18.5 14.5C20.7091 14.5 22.5 16.2909 22.5 18.5C22.5 20.7091 20.7091 22.5 18.5 22.5C16.2909 22.5 14.5 20.7091 14.5 18.5C14.5 18.1802 14.5375 17.8692 14.6084 17.5712L9.76914 14.8055C9.04488 15.8306 7.85061 16.5 6.5 16.5C4.29086 16.5 2.5 14.7091 2.5 12.5C2.5 10.2909 4.29086 8.5 6.5 8.5C7.85061 8.5 9.04488 9.16938 9.76914 10.1945L14.6084 7.42883C14.5375 7.13076 14.5 6.81976 14.5 6.5C14.5 4.29086 16.2909 2.5 18.5 2.5ZM18.5 16.5C17.3954 16.5 16.5 17.3954 16.5 18.5C16.5 19.6046 17.3954 20.5 18.5 20.5C19.6046 20.5 20.5 19.6046 20.5 18.5C20.5 17.3954 19.6046 16.5 18.5 16.5ZM6.5 10.5C5.39543 10.5 4.5 11.3954 4.5 12.5C4.5 13.6046 5.39543 14.5 6.5 14.5C7.60457 14.5 8.5 13.6046 8.5 12.5C8.5 11.3954 7.60457 10.5 6.5 10.5ZM18.5 4.5C17.3954 4.5 16.5 5.39543 16.5 6.5C16.5 7.60457 17.3954 8.5 18.5 8.5C19.6046 8.5 20.5 7.60457 20.5 6.5C20.5 5.39543 19.6046 4.5 18.5 4.5Z" fill="black"/>
</g>
</svg>
