<svg width="24" height="24" viewBox="0 0 24 24" fill="none" xmlns="http://www.w3.org/2000/svg">
<g id="ic24-slider">
<path id="Icon" fillRule="evenodd" clipRule="evenodd" d="M12 16.0002C13.3063 16.0002 14.4175 16.8351 14.8293 18.0003L21 18.0002C21.5523 18.0002 22 18.448 22 19.0002C22 19.5525 21.5523 20.0002 21 20.0002L14.829 20.0011C14.4169 21.1659 13.3059 22.0002 12 22.0002C10.6941 22.0002 9.58312 21.1659 9.17102 20.0011L3 20.0002C2.44772 20.0002 2 19.5525 2 19.0002C2 18.448 2.44772 18.0002 3 18.0002L9.17067 18.0003C9.58249 16.8351 10.6937 16.0002 12 16.0002ZM12 18.0001C11.4477 18.0001 11 18.4478 11 19.0001C11 19.5524 11.4477 20.0001 12 20.0001C12.5523 20.0001 13 19.5524 13 19.0001C13 18.4478 12.5523 18.0001 12 18.0001ZM19 9.00012C20.6569 9.00012 22 10.3433 22 12.0001C22 13.657 20.6569 15.0001 19 15.0001C17.6941 15.0001 16.5831 14.1657 16.171 13.001L3 13.0001C2.44772 13.0001 2 12.5524 2 12.0001C2 11.4478 2.44772 11.0001 3 11.0001L16.1707 11.0002C16.5825 9.83497 17.6937 9.00012 19 9.00012ZM18.9998 11C18.4475 11 17.9998 11.4477 17.9998 12C17.9998 12.5523 18.4475 13 18.9998 13C19.552 13 19.9998 12.5523 19.9998 12C19.9998 11.4477 19.552 11 18.9998 11ZM5 2C6.3118 2 7.42695 2.84196 7.83453 4.01495C7.88799 4.00469 7.94344 4 8 4H21C21.5523 4 22 4.44772 22 5C22 5.55228 21.5523 6 21 6H8C7.94344 6 7.88799 5.99531 7.83399 5.98628C7.42695 7.15804 6.3118 8 5 8C3.34315 8 2 6.65685 2 5C2 3.34315 3.34315 2 5 2ZM4.99951 4.00024C4.44723 4.00024 3.99951 4.44796 3.99951 5.00024C3.99951 5.55253 4.44723 6.00024 4.99951 6.00024C5.5518 6.00024 5.99951 5.55253 5.99951 5.00024C5.99951 4.44796 5.5518 4.00024 4.99951 4.00024Z" fill="#FCFCFC"/>
</g>
</svg>
