<svg width="17" height="16" viewBox="0 0 17 16" fill="none" xmlns="http://www.w3.org/2000/svg">
<g id="Star">
<path id="Star_2" d="M8.04127 1.39112C8.21535 0.989679 8.78465 0.989678 8.95873 1.39112L10.555 5.0723C10.6275 5.23938 10.785 5.35385 10.9663 5.37113L14.9606 5.75174C15.3962 5.79325 15.5721 6.33468 15.2441 6.62429L12.2364 9.28C12.0999 9.40053 12.0397 9.58576 12.0793 9.76351L12.9516 13.6799C13.0467 14.107 12.5862 14.4416 12.2094 14.2192L8.7542 12.1793C8.59738 12.0867 8.40262 12.0867 8.2458 12.1793L4.79063 14.2192C4.41384 14.4416 3.95327 14.107 4.0484 13.6799L4.92072 9.76351C4.96031 9.58576 4.90013 9.40053 4.76362 9.28L1.75588 6.62429C1.42789 6.33468 1.60381 5.79325 2.03939 5.75174L6.03369 5.37113C6.21497 5.35385 6.37253 5.23938 6.44498 5.0723L8.04127 1.39112Z" stroke="#00A7E5" strokeWidth="1.8"/>
</g>
</svg>
