<svg width="17" height="17" viewBox="0 0 17 17" fill="none" xmlns="http://www.w3.org/2000/svg">
<g id="Star">
<path id="Star_2" d="M7.80821 2.66456C8.06484 2.04979 8.93581 2.04979 9.19244 2.66456L10.3743 5.49561C10.4768 5.7413 10.7019 5.91421 10.9658 5.94991L14.1212 6.37699C14.7714 6.46499 15.0032 7.28648 14.4948 7.70129L12.0749 9.67606C11.8534 9.85679 11.7539 10.1477 11.8184 10.4262L12.591 13.7651C12.7461 14.4353 11.9925 14.9433 11.4295 14.5481L8.93119 12.7947C8.67261 12.6132 8.32804 12.6132 8.06946 12.7947L5.57115 14.5481C5.00812 14.9433 4.25452 14.4353 4.4096 13.7652L5.18221 10.4262C5.24665 10.1477 5.14717 9.8568 4.9257 9.67606L2.50579 7.70129C1.99747 7.28647 2.22921 6.46499 2.87939 6.37699L6.03487 5.94991C6.2987 5.91421 6.52383 5.7413 6.62639 5.49561L7.80821 2.66456Z" fill="#E2A21F"/>
</g>
</svg>
