<svg width="25" height="25" viewBox="0 0 25 25" fill="none" xmlns="http://www.w3.org/2000/svg">
<g id="Star">
<path id="Star_2" d="M11.8079 3.15797C12.0645 2.5432 12.9355 2.5432 13.1921 3.15797L15.3937 8.43186C15.4963 8.67755 15.7214 8.85045 15.9852 8.88616L21.7876 9.67148C22.4378 9.75948 22.6695 10.581 22.1612 10.9958L17.6809 14.6518C17.4594 14.8326 17.36 15.1235 17.4244 15.402L18.8568 21.5919C19.0119 22.262 18.2583 22.77 17.6953 22.3748L12.9309 19.0309C12.6723 18.8494 12.3277 18.8494 12.0691 19.0309L7.3047 22.3749C6.74167 22.77 5.98807 22.2621 6.14315 21.5919L7.57545 15.402C7.6399 15.1235 7.54042 14.8326 7.31895 14.6518L2.8388 10.9958C2.33048 10.581 2.56222 9.75948 3.2124 9.67149L9.01479 8.88616C9.27862 8.85045 9.50375 8.67755 9.60631 8.43186L11.8079 3.15797Z" fill="#D9DBE9"/>
</g>
</svg>
