<svg width="13" height="13" viewBox="0 0 13 13" fill="none" xmlns="http://www.w3.org/2000/svg">
<g id="Filled Success">
<path id="Subtract" fillRule="evenodd" clipRule="evenodd" d="M6.50032 12.3837C9.72198 12.3837 12.3337 9.77203 12.3337 6.55037C12.3337 3.32871 9.72198 0.717041 6.50032 0.717041C3.27866 0.717041 0.666992 3.32871 0.666992 6.55037C0.666992 9.77203 3.27866 12.3837 6.50032 12.3837ZM5.3314 6.10204C5.09842 5.86906 4.72067 5.86906 4.48769 6.10204C4.25471 6.33503 4.25471 6.71277 4.48769 6.94575L5.61263 8.07069L6.03449 8.49255L6.45634 8.07069L8.70623 5.82081C8.93921 5.58782 8.93921 5.21008 8.70623 4.9771C8.47324 4.74412 8.0955 4.74412 7.86252 4.9771L6.03449 6.80513L5.3314 6.10204Z" fill="#00CC67"/>
</g>
</svg>
