<svg width="24" height="24" viewBox="0 0 24 24" fill="none" xmlns="http://www.w3.org/2000/svg">
<path d="M1 9.17071H0V9.87788L0.666754 10.1135L1 9.17071ZM1 14.8293L0.666754 13.8865L0 14.1221V14.8293H1ZM23 14.8293H24V14.1221L23.3332 13.8865L23 14.8293ZM23 9.17071L23.3332 10.1135L24 9.87788V9.17071H23ZM2 6C2 5.44772 2.44772 5 3 5V3C1.34315 3 0 4.34315 0 6H2ZM2 9.17071V6H0V9.17071H2ZM4 12C4 10.2568 2.88549 8.7765 1.33325 8.22787L0.666754 10.1135C1.4449 10.3886 2 11.1307 2 12H4ZM1.33325 15.7721C2.88549 15.2235 4 13.7432 4 12H2C2 12.8693 1.4449 13.6114 0.666754 13.8865L1.33325 15.7721ZM2 18V14.8293H0V18H2ZM3 19C2.44772 19 2 18.5523 2 18H0C0 19.6569 1.34314 21 3 21V19ZM21 19H3V21H21V19ZM22 18C22 18.5523 21.5523 19 21 19V21C22.6569 21 24 19.6569 24 18H22ZM22 14.8293V18H24V14.8293H22ZM20 12C20 13.7432 21.1145 15.2235 22.6668 15.7721L23.3332 13.8865C22.5551 13.6114 22 12.8693 22 12H20ZM22.6668 8.22787C21.1145 8.7765 20 10.2568 20 12H22C22 11.1308 22.5551 10.3886 23.3332 10.1135L22.6668 8.22787ZM22 6V9.17071H24V6H22ZM21 5C21.5523 5 22 5.44771 22 6H24C24 4.34315 22.6569 3 21 3V5ZM3 5H21V3H3V5Z" fill="#A0A3BD"/>
<path d="M15 4V6" stroke="#A0A3BD" stroke-width="2" stroke-linecap="round" stroke-linejoin="round"/>
<path d="M15 11V13" stroke="#A0A3BD" stroke-width="2" stroke-linecap="round" stroke-linejoin="round"/>
<path d="M15 18V20" stroke="#A0A3BD" stroke-width="2" stroke-linecap="round" stroke-linejoin="round"/>
</svg>
