<svg width="25" height="21" viewBox="0 0 25 21" fill="none" xmlns="http://www.w3.org/2000/svg">
<path id="Vector" d="M7.86228 20.6579C17.2967 20.6579 22.456 12.8416 22.456 6.06417C22.456 5.8421 22.4515 5.62117 22.4412 5.40109C23.4427 4.67716 24.3133 3.77353 25 2.74535C24.081 3.15367 23.0921 3.42862 22.0545 3.55259C23.1134 2.91766 23.9266 1.91281 24.3102 0.715172C23.319 1.3029 22.2214 1.72998 21.0534 1.96029C20.117 0.963401 18.784 0.339844 17.3092 0.339844C14.4763 0.339844 12.1791 2.63702 12.1791 5.46848C12.1791 5.8711 12.2243 6.26235 12.3119 6.63796C8.04937 6.42386 4.26936 4.38258 1.73987 1.2793C1.29886 2.03706 1.04495 2.91795 1.04495 3.85712C1.04495 5.63652 1.95057 7.2075 3.32763 8.12677C2.48627 8.10089 1.6958 7.86944 1.00457 7.48501C1.00343 7.50634 1.00343 7.52795 1.00343 7.55041C1.00343 10.0347 2.77174 12.1086 5.1184 12.5786C4.68762 12.6961 4.23439 12.7592 3.76636 12.7592C3.43596 12.7592 3.11466 12.7262 2.80217 12.6668C3.45501 14.7044 5.34871 16.1875 7.59386 16.2293C5.83806 17.6052 3.62647 18.4249 1.22351 18.4249C0.809799 18.4249 0.401488 18.4013 0 18.3539C2.26988 19.8085 4.96514 20.6579 7.86228 20.6579Z" fill="#262338"/>
</svg>
