<svg width="24" height="24" viewBox="0 0 24 24" fill="none" xmlns="http://www.w3.org/2000/svg">
<g id="ic24-user">
<path id="Icon" fillRule="evenodd" clipRule="evenodd" d="M7 16.0002H17C19.7614 16.0002 22 18.2388 22 21.0002C22 21.5525 21.5523 22.0002 21 22.0002C20.4872 22.0002 20.0645 21.6142 20.0067 21.1169L19.9949 20.824C19.907 19.3075 18.6928 18.0932 17.1763 18.0053L17 18.0002H7C5.34315 18.0002 4 19.3434 4 21.0002C4 21.5525 3.55228 22.0002 3 22.0002C2.44772 22.0002 2 21.5525 2 21.0002C2 18.3115 4.12231 16.1184 6.78311 16.0049L7 16.0002H17H7ZM12.0005 2C15.3142 2 18.0005 4.68629 18.0005 8C18.0005 11.3137 15.3142 14 12.0005 14C8.68678 14 6.00049 11.3137 6.00049 8C6.00049 4.68629 8.68678 2 12.0005 2ZM12 4.00024C9.79086 4.00024 8 5.79111 8 8.00024C8 10.2094 9.79086 12.0002 12 12.0002C14.2091 12.0002 16 10.2094 16 8.00024C16 5.79111 14.2091 4.00024 12 4.00024Z" fill="#14142B"/>
</g>
</svg>
