<svg xmlns="http://www.w3.org/2000/svg" width="24" height="24" viewBox="0 0 24 24" fill="none">
												<path
													fillRule="evenodd"
													clipRule="evenodd"
													d="M17 2C17.5523 2 18 2.44772 18 3V4H19C20.6569 4 22 5.34315 22 7V19C22 20.6569 20.6569 22 19 22H5C3.34315 22 2 20.6569 2 19V7C2 5.34315 3.34315 4 5 4H6V3C6 2.44772 6.44772 2 7 2C7.55228 2 8 2.44772 8 3V4H16V3C16 2.44772 16.4477 2 17 2ZM3.99951 12.0001V19.0001C3.99951 19.5524 4.44723 20.0001 4.99951 20.0001H18.9995C19.5518 20.0001 19.9995 19.5524 19.9995 19.0001V12.0001H3.99951ZM3.99951 10.0001H19.9995V7.00012C19.9995 6.44784 19.5518 6.00012 18.9995 6.00012H17.9995V7.00012C17.9995 7.55241 17.5518 8.00012 16.9995 8.00012C16.4472 8.00012 15.9995 7.55241 15.9995 7.00012V6.00012H7.99951V7.00012C7.99951 7.55241 7.5518 8.00012 6.99951 8.00012C6.44723 8.00012 5.99951 7.55241 5.99951 7.00012V6.00012H4.99951C4.44723 6.00012 3.99951 6.44784 3.99951 7.00012V10.0001Z"
													fill="#6E7191"
												/>
											</svg>