<svg xmlns="http://www.w3.org/2000/svg" width="24" height="24" viewBox="0 0 24 24" fill="none">
												<path
													fillRule="evenodd"
													clipRule="evenodd"
													d="M7 16.0002H17C19.7614 16.0002 22 18.2388 22 21.0002C22 21.5525 21.5523 22.0002 21 22.0002C20.4872 22.0002 20.0645 21.6142 20.0067 21.1169L19.9949 20.824C19.907 19.3075 18.6928 18.0932 17.1763 18.0053L17 18.0002H7C5.34315 18.0002 4 19.3434 4 21.0002C4 21.5525 3.55228 22.0002 3 22.0002C2.44772 22.0002 2 21.5525 2 21.0002C2 18.3115 4.12231 16.1184 6.78311 16.0049L7 16.0002H17H7ZM11.9998 2C15.3135 2 17.9998 4.68629 17.9998 8C17.9998 11.3137 15.3135 14 11.9998 14C8.68605 14 5.99976 11.3137 5.99976 8C5.99976 4.68629 8.68605 2 11.9998 2ZM12 4.00024C9.79086 4.00024 8 5.79111 8 8.00024C8 10.2094 9.79086 12.0002 12 12.0002C14.2091 12.0002 16 10.2094 16 8.00024C16 5.79111 14.2091 4.00024 12 4.00024Z"
													fill="#6E7191"
												/>
											</svg>